<svg xmlns="http://www.w3.org/2000/svg" viewBox="0 0 120 120" role="img" aria-hidden="true">
  <defs>
    <linearGradient id="dbGear" x1="0" y1="0" x2="1" y2="1">
      <stop offset="0%" stop-color="#fff7ed"/>
      <stop offset="100%" stop-color="#fdba74"/>
    </linearGradient>
  </defs>
  <circle cx="60" cy="60" r="54" fill="rgba(255,255,255,0.12)"/>
  <g fill="url(#dbGear)" stroke="#9a3412" stroke-width="2.2" stroke-linejoin="round">
    <path d="M60 22c3.2 0 5.8 2.6 5.8 5.8v3.4l4.4 1.6 2.4-3.1c2-2.5 5.7-2.9 8.2-0.9l4.1 3.2c2.5 2 2.9 5.7 0.9 8.2l-2.5 3.1 1.6 4.4h3.4c3.2 0 5.8 2.6 5.8 5.8v5.1c0 3.2-2.6 5.8-5.8 5.8h-3.4l-1.6 4.4 2.5 3.1c2 2.5 1.6 6.2-0.9 8.2l-4.1 3.2c-2.5 2-6.2 1.6-8.2-0.9l-2.4-3.1-4.4 1.6v3.4c0 3.2-2.6 5.8-5.8 5.8h-5.1c-3.2 0-5.8-2.6-5.8-5.8v-3.4l-4.4-1.6-2.4 3.1c-2 2.5-5.7 2.9-8.2 0.9l-4.1-3.2c-2.5-2-2.9-5.7-0.9-8.2l2.5-3.1-1.6-4.4h-3.4c-3.2 0-5.8-2.6-5.8-5.8v-5.1c0-3.2 2.6-5.8 5.8-5.8h3.4l1.6-4.4-2.5-3.1c-2-2.5-1.6-6.2 0.9-8.2l4.1-3.2c2.5-2 6.2-1.6 8.2 0.9l2.4 3.1 4.4-1.6v-3.4c0-3.2 2.6-5.8 5.8-5.8H60z"/>
  </g>
  <circle cx="60" cy="60" r="16" fill="#ea580c" stroke="#7c2d12" stroke-width="2.5"/>
  <circle cx="60" cy="60" r="7" fill="#fff7ed"/>
</svg>
