<svg xmlns="http://www.w3.org/2000/svg" viewBox="0 0 420 280" role="img" aria-hidden="true">
  <defs>
    <linearGradient id="sky" x1="0" y1="0" x2="0" y2="1">
      <stop offset="0%" stop-color="#fb923c"/>
      <stop offset="100%" stop-color="#9a3412"/>
    </linearGradient>
    <linearGradient id="panel" x1="0" y1="0" x2="1" y2="1">
      <stop offset="0%" stop-color="#fff7ed"/>
      <stop offset="100%" stop-color="#fed7aa"/>
    </linearGradient>
    <linearGradient id="rack" x1="0" y1="0" x2="0" y2="1">
      <stop offset="0%" stop-color="#ffedd5"/>
      <stop offset="100%" stop-color="#fdba74"/>
    </linearGradient>
  </defs>
  <rect width="420" height="280" rx="28" fill="url(#sky)" opacity="0.35"/>
  <!-- floor glow -->
  <ellipse cx="210" cy="240" rx="150" ry="22" fill="#7c2d12" opacity="0.35"/>
  <!-- main server rack -->
  <rect x="145" y="70" width="130" height="150" rx="14" fill="url(#rack)" stroke="#7c2d12" stroke-width="3"/>
  <rect x="158" y="88" width="104" height="28" rx="7" fill="url(#panel)" stroke="#9a3412" stroke-width="2"/>
  <rect x="158" y="128" width="104" height="28" rx="7" fill="url(#panel)" stroke="#9a3412" stroke-width="2"/>
  <rect x="158" y="168" width="104" height="28" rx="7" fill="url(#panel)" stroke="#9a3412" stroke-width="2"/>
  <circle cx="172" cy="102" r="5" fill="#16a34a"/>
  <circle cx="188" cy="102" r="5" fill="#ea580c"/>
  <circle cx="172" cy="142" r="5" fill="#16a34a"/>
  <circle cx="188" cy="142" r="5" fill="#f59e0b"/>
  <circle cx="172" cy="182" r="5" fill="#16a34a"/>
  <circle cx="188" cy="182" r="5" fill="#ea580c"/>
  <rect x="206" y="97" width="42" height="10" rx="4" fill="#c2410c" opacity="0.45"/>
  <rect x="206" y="137" width="42" height="10" rx="4" fill="#c2410c" opacity="0.45"/>
  <rect x="206" y="177" width="42" height="10" rx="4" fill="#c2410c" opacity="0.45"/>
  <!-- left gear -->
  <g transform="translate(55 95)">
    <circle cx="40" cy="40" r="36" fill="rgba(255,247,237,0.18)"/>
    <circle cx="40" cy="40" r="22" fill="#fdba74" stroke="#7c2d12" stroke-width="2.5"/>
    <circle cx="40" cy="40" r="9" fill="#fff7ed" stroke="#9a3412" stroke-width="2"/>
    <g stroke="#7c2d12" stroke-width="8" stroke-linecap="round">
      <path d="M40 10v8M40 62v8M10 40h8M62 40h8M18 18l6 6M56 56l6 6M18 62l6-6M56 24l6-6"/>
    </g>
  </g>
  <!-- right clock -->
  <g transform="translate(290 100)">
    <circle cx="40" cy="40" r="34" fill="#fff7ed" stroke="#7c2d12" stroke-width="3"/>
    <circle cx="40" cy="40" r="27" fill="none" stroke="#fdba74" stroke-width="5" stroke-dasharray="14 8"/>
    <path d="M40 20v22l14 8" fill="none" stroke="#c2410c" stroke-width="4" stroke-linecap="round" stroke-linejoin="round"/>
    <circle cx="40" cy="40" r="4" fill="#ea580c"/>
  </g>
  <!-- orbit dots -->
  <circle cx="120" cy="55" r="5" fill="#fed7aa"/>
  <circle cx="310" cy="48" r="4" fill="#ffedd5"/>
  <circle cx="340" cy="200" r="6" fill="#fdba74" opacity="0.8"/>
</svg>
